<?xml version="1.0" encoding="utf-8"?>
<!-- Generator: Adobe Illustrator 22.1.0, SVG Export Plug-In . SVG Version: 6.00 Build 0)  -->
<svg version="1.1" id="Vrstva_1" xmlns="http://www.w3.org/2000/svg" xmlns:xlink="http://www.w3.org/1999/xlink" x="0px" y="0px"
	 viewBox="0 0 158 72" style="enable-background:new 0 0 158 72;" xml:space="preserve">
<style type="text/css">
	.st0{fill:#F05A22;}
	.st1{fill:#FFFFFF;}
</style>
<g>
	<rect x="-0.2" class="st0" width="158.4" height="72"/>
	<g>
		<path class="st1" d="M35.8,31.4c2.5,0,4.6,2.1,4.6,4.6c0,2.6-2.1,4.6-4.6,4.6c-2.6,0-4.6-2.1-4.6-4.6
			C31.2,33.4,33.2,31.4,35.8,31.4"/>
		<path class="st1" d="M30.7,45.6c-3.1,3.1-7.8,7.8-7.8,7.8s-5.6-3.4-2.3-6.7c1.8-1.8,3.9-3.9,5.5-5.5
			C28.9,38.4,33.5,42.8,30.7,45.6"/>
		<path class="st1" d="M40.9,26.4c3.1-3.1,7.8-7.8,7.8-7.8s5.6,3.4,2.3,6.7c-1.8,1.8-3.9,3.9-5.5,5.5C42.6,33.6,38.1,29.2,40.9,26.4
			"/>
		<path class="st1" d="M26.2,30.9c-3.1-3.1-7.8-7.8-7.8-7.8s3.4-5.6,6.7-2.3c1.8,1.8,3.9,3.9,5.5,5.5C33.4,29.1,29,33.7,26.2,30.9"
			/>
		<path class="st1" d="M45.4,41.1c3.1,3.1,7.8,7.8,7.8,7.8s-3.4,5.6-6.7,2.3c-1.8-1.8-3.9-3.9-5.5-5.5
			C38.2,42.8,42.6,38.3,45.4,41.1"/>
		<path class="st1" d="M46.2,32.8h11c0,0,1.6,6.4-3.1,6.4h-7.8C42.3,39.2,42.2,32.8,46.2,32.8"/>
		<path class="st1" d="M25.4,39.2h-11c0,0-1.6-6.4,3.1-6.4h7.8C29.3,32.8,29.4,39.2,25.4,39.2"/>
		<path class="st1" d="M39,46.4v11c0,0-6.4,1.6-6.4-3.1c0-2.5,0-5.6,0-7.8C32.6,42.5,39,42.4,39,46.4"/>
		<path class="st1" d="M32.6,25.6c0-4.4,0-11,0-11s6.4-1.6,6.4,3.1v7.8C39,29.5,32.6,29.6,32.6,25.6"/>
		<path class="st1" d="M68.6,31.7v4.1c1.2-1.7,2.3-3.5,3.8-5.1c0.7-0.8,1-0.8,2-0.8h1.8V30c-1,1-3.6,4.2-5,6.1
			c1.2,1.8,2.4,3.8,4.1,5.2c0.4,0.3,0.7,0.4,1,0.5c-0.2,0.9-0.6,1.3-1.7,1.3c-0.6,0-1.4-0.3-1.8-0.8c-1.6-1.9-2.9-3.8-4.2-5.9v6.7
			h-0.9c-1.3,0-1.7-0.9-1.7-1.8V29.9h0.8C68.2,29.9,68.6,30.8,68.6,31.7"/>
		<path class="st1" d="M81.8,39h-1.7c0.2,1.3,1.4,2.1,2.9,2.1c1.1,0,2.3-0.2,3.2-1h0.1V41c0,1.3-0.9,2.3-3.8,2.3
			c-2.6,0-5.1-2-5.1-5.2c0-3.5,2.1-5.6,5.1-5.6c2.2,0,4.2,1.5,4.2,4C86.7,38.4,85.3,39,81.8,39 M82.3,34.7c-1.2,0-2.1,1-2.2,2.2
			l0,0.3h1.2c2.4,0,3-0.3,3-1C84.3,35.2,83.5,34.7,82.3,34.7"/>
		<path class="st1" d="M97.7,43.1c-1.2,0-1.9-0.7-1.9-1.7v-4.1c0-1.8-0.8-2.5-2.1-2.5c-1.1,0-1.9,0.8-1.9,2.3v6h-0.8
			c-1.1,0-1.8-0.7-1.8-1.7v-4.5c0-2.2,1.4-4.4,4.7-4.4c2.4,0,4.5,1.6,4.5,4.6v6H97.7z"/>
		<path class="st1" d="M102.3,31.1c0.3-0.4,0.8-0.7,1.2-0.7h0.6v2.3h3.6v1.1c0,0.5-0.5,1.2-1.5,1.2h-2.1v4.1c0,1.3,0.6,1.9,1.6,1.9
			c0.8,0,1.5-0.1,1.9-0.4h0.1v0.9c0,1.1-0.8,1.7-2.3,1.7c-2.6,0-3.9-1.4-3.9-3.8v-6.2C101.6,32.1,101.8,31.7,102.3,31.1"/>
		<path class="st1" d="M111.5,32c-0.8,0-1.5-0.7-1.5-1.5c0-0.8,0.7-1.5,1.5-1.5c0.8,0,1.5,0.7,1.5,1.5C113,31.3,112.3,32,111.5,32
			 M113.3,43.2c-2,0-3.1-1.1-3.1-3.2v-7h0.7c1.2,0,1.8,0.6,1.8,1.9v4.8c0,1,0.4,1.4,1.6,1.4h0.5v0.6
			C114.8,42.8,114.4,43.2,113.3,43.2"/>
		<path class="st1" d="M124.7,36.1c-0.3-0.6-1.3-1.1-2.8-1.1c-1.5,0-2.8,1.2-2.8,2.8c0,1.9,1.1,3.2,2.9,3.2c1.5,0,2.4-0.5,2.7-1h0.1
			v1.2c0,1.2-1.2,2.2-3.1,2.2c-2.8,0-5.3-2.2-5.3-5.2c0-3,2.1-5.5,5.6-5.5c1.7,0,2.8,1,2.8,2.2L124.7,36.1L124.7,36.1z"/>
		<path class="st1" d="M131.9,32.5c3.1,0,4.9,2.5,4.9,5.3c0,3.1-1.8,5.6-5.1,5.6c-3.1,0-4.9-2.5-4.9-5.2
			C126.8,35,128.6,32.5,131.9,32.5 M131.7,34.8c-1.5,0-2.2,1.2-2.2,2.9c0,2.1,0.7,3.3,2.5,3.3c1.5,0,2.2-1.2,2.2-2.9
			C134.1,36,133.4,34.8,131.7,34.8"/>
	</g>
</g>
</svg>
